<mxfile host="app.diagrams.net" agent="Mozilla/5.0 (Windows NT 10.0; Win64; x64) AppleWebKit/537.36 (KHTML, like Gecko) Chrome/130.0.0.0 Safari/537.36" version="24.8.6">
  <diagram name="Page-1" id="qtnDA9PqoRiSYJbS2UgK">
    <mxGraphModel dx="1395" dy="643" grid="1" gridSize="10" guides="1" tooltips="1" connect="1" arrows="1" fold="1" page="1" pageScale="1" pageWidth="850" pageHeight="1100" math="0" shadow="0">
      <root>
        <mxCell id="0" />
        <mxCell id="1" parent="0" />
        <mxCell id="JIAIzDKo57KR7pgy1ygF-15" value="&lt;b&gt;Read the current character pointed to by the pointer&lt;/b&gt;" style="rounded=1;whiteSpace=wrap;html=1;absoluteArcSize=1;arcSize=14;strokeWidth=2;fillColor=#99CCFF;" vertex="1" parent="1">
          <mxGeometry x="271.27" y="120" width="332.49" height="50" as="geometry" />
        </mxCell>
        <mxCell id="JIAIzDKo57KR7pgy1ygF-20" style="edgeStyle=orthogonalEdgeStyle;rounded=0;orthogonalLoop=1;jettySize=auto;html=1;exitX=0.5;exitY=1;exitDx=0;exitDy=0;exitPerimeter=0;entryX=0.5;entryY=0;entryDx=0;entryDy=0;" edge="1" parent="1" source="JIAIzDKo57KR7pgy1ygF-16" target="JIAIzDKo57KR7pgy1ygF-17">
          <mxGeometry relative="1" as="geometry" />
        </mxCell>
        <mxCell id="JIAIzDKo57KR7pgy1ygF-45" value="&lt;b&gt;NO&lt;/b&gt;" style="edgeLabel;html=1;align=center;verticalAlign=middle;resizable=0;points=[];" vertex="1" connectable="0" parent="JIAIzDKo57KR7pgy1ygF-20">
          <mxGeometry x="-0.2065" relative="1" as="geometry">
            <mxPoint as="offset" />
          </mxGeometry>
        </mxCell>
        <mxCell id="JIAIzDKo57KR7pgy1ygF-36" style="edgeStyle=orthogonalEdgeStyle;rounded=0;orthogonalLoop=1;jettySize=auto;html=1;exitX=0;exitY=0.5;exitDx=0;exitDy=0;exitPerimeter=0;entryX=1;entryY=0.5;entryDx=0;entryDy=0;" edge="1" parent="1" source="JIAIzDKo57KR7pgy1ygF-16" target="JIAIzDKo57KR7pgy1ygF-26">
          <mxGeometry relative="1" as="geometry" />
        </mxCell>
        <mxCell id="JIAIzDKo57KR7pgy1ygF-46" value="&lt;b&gt;YES&lt;/b&gt;" style="edgeLabel;html=1;align=center;verticalAlign=middle;resizable=0;points=[];" vertex="1" connectable="0" parent="JIAIzDKo57KR7pgy1ygF-36">
          <mxGeometry x="-0.0489" y="-1" relative="1" as="geometry">
            <mxPoint x="4" y="1" as="offset" />
          </mxGeometry>
        </mxCell>
        <mxCell id="JIAIzDKo57KR7pgy1ygF-16" value="&lt;b&gt;Current character == &#39;\0&#39; || &#39;\n&#39; || &#39;\r&#39; ?&lt;/b&gt;" style="strokeWidth=2;html=1;shape=mxgraph.flowchart.decision;whiteSpace=wrap;fillColor=#FFFF99;" vertex="1" parent="1">
          <mxGeometry x="312.52" y="210" width="250" height="100" as="geometry" />
        </mxCell>
        <mxCell id="JIAIzDKo57KR7pgy1ygF-48" style="edgeStyle=orthogonalEdgeStyle;rounded=0;orthogonalLoop=1;jettySize=auto;html=1;exitX=0.5;exitY=1;exitDx=0;exitDy=0;entryX=0.5;entryY=0;entryDx=0;entryDy=0;" edge="1" parent="1" source="JIAIzDKo57KR7pgy1ygF-17" target="JIAIzDKo57KR7pgy1ygF-47">
          <mxGeometry relative="1" as="geometry" />
        </mxCell>
        <mxCell id="JIAIzDKo57KR7pgy1ygF-17" value="&lt;b&gt;Perform procedure string_to_float&lt;/b&gt;" style="rounded=1;whiteSpace=wrap;html=1;absoluteArcSize=1;arcSize=14;strokeWidth=2;fillColor=#99CCFF;" vertex="1" parent="1">
          <mxGeometry x="308.15" y="350" width="258.74" height="50" as="geometry" />
        </mxCell>
        <mxCell id="JIAIzDKo57KR7pgy1ygF-19" style="edgeStyle=orthogonalEdgeStyle;rounded=0;orthogonalLoop=1;jettySize=auto;html=1;exitX=0.5;exitY=1;exitDx=0;exitDy=0;entryX=0.5;entryY=0;entryDx=0;entryDy=0;entryPerimeter=0;" edge="1" parent="1" source="JIAIzDKo57KR7pgy1ygF-15" target="JIAIzDKo57KR7pgy1ygF-16">
          <mxGeometry relative="1" as="geometry" />
        </mxCell>
        <mxCell id="JIAIzDKo57KR7pgy1ygF-21" value="&lt;b&gt;Advance to the next element&lt;/b&gt;" style="rounded=1;whiteSpace=wrap;html=1;absoluteArcSize=1;arcSize=14;strokeWidth=2;fillColor=#99CCFF;" vertex="1" parent="1">
          <mxGeometry x="333.7799999999999" y="530" width="207.48" height="50" as="geometry" />
        </mxCell>
        <mxCell id="JIAIzDKo57KR7pgy1ygF-25" style="edgeStyle=orthogonalEdgeStyle;rounded=0;orthogonalLoop=1;jettySize=auto;html=1;exitX=1;exitY=0.5;exitDx=0;exitDy=0;exitPerimeter=0;entryX=1;entryY=0.5;entryDx=0;entryDy=0;" edge="1" parent="1" source="JIAIzDKo57KR7pgy1ygF-23" target="JIAIzDKo57KR7pgy1ygF-15">
          <mxGeometry relative="1" as="geometry">
            <Array as="points">
              <mxPoint x="650" y="675" />
              <mxPoint x="650" y="145" />
            </Array>
          </mxGeometry>
        </mxCell>
        <mxCell id="JIAIzDKo57KR7pgy1ygF-43" value="&lt;b&gt;YES&lt;/b&gt;" style="edgeLabel;html=1;align=center;verticalAlign=middle;resizable=0;points=[];" vertex="1" connectable="0" parent="JIAIzDKo57KR7pgy1ygF-25">
          <mxGeometry x="-0.8887" y="-1" relative="1" as="geometry">
            <mxPoint as="offset" />
          </mxGeometry>
        </mxCell>
        <mxCell id="JIAIzDKo57KR7pgy1ygF-23" value="&lt;b&gt;Elements read&amp;nbsp;&lt;/b&gt;&lt;b style=&quot;background-color: initial;&quot;&gt;&amp;lt; E&lt;/b&gt;&lt;b style=&quot;background-color: initial;&quot;&gt;lements need reading ?&lt;/b&gt;" style="strokeWidth=2;html=1;shape=mxgraph.flowchart.decision;whiteSpace=wrap;fillColor=#FFFF99;" vertex="1" parent="1">
          <mxGeometry x="287.52" y="620" width="300" height="110" as="geometry" />
        </mxCell>
        <mxCell id="JIAIzDKo57KR7pgy1ygF-35" style="edgeStyle=orthogonalEdgeStyle;rounded=0;orthogonalLoop=1;jettySize=auto;html=1;exitX=0.5;exitY=0;exitDx=0;exitDy=0;entryX=0;entryY=0.5;entryDx=0;entryDy=0;" edge="1" parent="1" source="JIAIzDKo57KR7pgy1ygF-26" target="JIAIzDKo57KR7pgy1ygF-15">
          <mxGeometry relative="1" as="geometry" />
        </mxCell>
        <mxCell id="JIAIzDKo57KR7pgy1ygF-26" value="&lt;b&gt;Advance to the next character&lt;/b&gt;" style="rounded=1;whiteSpace=wrap;html=1;absoluteArcSize=1;arcSize=14;strokeWidth=2;fillColor=#99CCFF;" vertex="1" parent="1">
          <mxGeometry x="60" y="235" width="202.5" height="50" as="geometry" />
        </mxCell>
        <mxCell id="JIAIzDKo57KR7pgy1ygF-37" value="&lt;b&gt;END&lt;/b&gt;" style="strokeWidth=2;html=1;shape=mxgraph.flowchart.terminator;whiteSpace=wrap;fillColor=#99FF99;" vertex="1" parent="1">
          <mxGeometry x="387.5" y="790" width="100" height="60" as="geometry" />
        </mxCell>
        <mxCell id="JIAIzDKo57KR7pgy1ygF-38" style="edgeStyle=orthogonalEdgeStyle;rounded=0;orthogonalLoop=1;jettySize=auto;html=1;exitX=0.5;exitY=1;exitDx=0;exitDy=0;exitPerimeter=0;entryX=0.5;entryY=0;entryDx=0;entryDy=0;entryPerimeter=0;" edge="1" parent="1" source="JIAIzDKo57KR7pgy1ygF-23" target="JIAIzDKo57KR7pgy1ygF-37">
          <mxGeometry relative="1" as="geometry" />
        </mxCell>
        <mxCell id="JIAIzDKo57KR7pgy1ygF-44" value="&lt;b&gt;NO&lt;/b&gt;" style="edgeLabel;html=1;align=center;verticalAlign=middle;resizable=0;points=[];" vertex="1" connectable="0" parent="JIAIzDKo57KR7pgy1ygF-38">
          <mxGeometry x="-0.2226" y="-1" relative="1" as="geometry">
            <mxPoint as="offset" />
          </mxGeometry>
        </mxCell>
        <mxCell id="JIAIzDKo57KR7pgy1ygF-42" style="edgeStyle=orthogonalEdgeStyle;rounded=0;orthogonalLoop=1;jettySize=auto;html=1;entryX=0.5;entryY=0;entryDx=0;entryDy=0;" edge="1" parent="1" source="JIAIzDKo57KR7pgy1ygF-41" target="JIAIzDKo57KR7pgy1ygF-15">
          <mxGeometry relative="1" as="geometry" />
        </mxCell>
        <mxCell id="JIAIzDKo57KR7pgy1ygF-41" value="&lt;b&gt;START&lt;/b&gt;" style="strokeWidth=2;html=1;shape=mxgraph.flowchart.start_1;whiteSpace=wrap;fillColor=#99FF99;" vertex="1" parent="1">
          <mxGeometry x="387.5" y="20" width="100" height="60" as="geometry" />
        </mxCell>
        <mxCell id="JIAIzDKo57KR7pgy1ygF-49" style="edgeStyle=orthogonalEdgeStyle;rounded=0;orthogonalLoop=1;jettySize=auto;html=1;exitX=0.5;exitY=1;exitDx=0;exitDy=0;entryX=0.5;entryY=0;entryDx=0;entryDy=0;" edge="1" parent="1" source="JIAIzDKo57KR7pgy1ygF-47" target="JIAIzDKo57KR7pgy1ygF-21">
          <mxGeometry relative="1" as="geometry" />
        </mxCell>
        <mxCell id="JIAIzDKo57KR7pgy1ygF-47" value="&lt;b&gt;Save converted element to the matrix&lt;/b&gt;" style="rounded=1;whiteSpace=wrap;html=1;absoluteArcSize=1;arcSize=14;strokeWidth=2;fillColor=#99CCFF;" vertex="1" parent="1">
          <mxGeometry x="316.89" y="440" width="241.23" height="50" as="geometry" />
        </mxCell>
        <mxCell id="JIAIzDKo57KR7pgy1ygF-50" style="edgeStyle=orthogonalEdgeStyle;rounded=0;orthogonalLoop=1;jettySize=auto;html=1;exitX=0.5;exitY=1;exitDx=0;exitDy=0;entryX=0.5;entryY=0;entryDx=0;entryDy=0;entryPerimeter=0;" edge="1" parent="1" source="JIAIzDKo57KR7pgy1ygF-21" target="JIAIzDKo57KR7pgy1ygF-23">
          <mxGeometry relative="1" as="geometry" />
        </mxCell>
      </root>
    </mxGraphModel>
  </diagram>
</mxfile>
